<svg version="1.1" id="Layer_1" xmlns="http://www.w3.org/2000/svg" xmlns:xlink="http://www.w3.org/1999/xlink" x="0px" y="0px" viewBox="0 0 48 48" enable-background="new 0 0 48 48" xml:space="preserve">
<path fill="#795548" d="M38.9,23.4c-0.4-5.8-2.3-4.9-1.1-11.6C35.5,12.8,33,17,29,17H19c-4,0-6.5-4.2-8.8-5.2
c1.2,6.6-0.6,5.8-1.1,11.6C9,23.8,9,24.1,9,24.5V30c0,5.8,6,7,6,7s3,1,9,1s9-1,9-1s6-0.9,6-7v-5.5C39,24.1,39,23.8,38.9,23.4z"></path>
<path fill="#FFFFFF" d="M17.5,19.1c3.6,0,6.5,2.7,6.5,6s-2.9,6-6.5,6s-6.5-2.7-6.5-6S14,19.1,17.5,19.1z M18,32c0,3,2.7,6,6,6
s6-3,6-6c0,0-2.7-1-6-1S18,32,18,32z"></path>
<g>
<path fill="#FF9E80" d="M48,9c-4.8,0-8.2,1.4-10.7,3.1c0.2-0.1,0.3-0.2,0.5-0.3c-1.2,6.6,0.6,5.8,1.1,11.6c0.1,0.4,0.1,0.7,0.1,1.1
V26c10.2-1.1,6.2-10.7,6-12C44.8,12.8,44.3,11.3,48,9z"></path>
<path fill="#FF9E80" d="M10.4,11.9C7.9,10.3,4.6,9,0,9c3.8,2.3,3.3,3.8,3,5c-0.2,1.2-4.3,10.8,6,12v-1.5c0-0.4,0-0.7,0.1-1.1
c0.4-5.8,2.3-4.9,1.1-11.6C10.2,11.9,10.3,11.9,10.4,11.9z"></path>
<ellipse fill="#FF9E80" cx="30" cy="24.5" rx="4" ry="3.5"></ellipse>
<ellipse fill="#FF9E80" cx="18" cy="24.5" rx="4" ry="3.5"></ellipse>
<path fill="#FF9E80" d="M26,29.2c0-0.1,0-0.1,0-0.2c0-1.1-0.9-2-2-2s-2,0.9-2,2c0,0.1,0,0.1,0,0.2c-2.3,0.4-4,1.5-4,2.8
c0,1.7,2.7,3,6,3s6-1.3,6-3C30,30.7,28.3,29.6,26,29.2z"></path>
</g>
<path fill="#FFFFFF" d="M30,23c2.2,0,4,2,4,2s-1.8,2-4,2s-4-2-4-2S27.8,23,30,23z M18,23c-2.2,0-4,2-4,2s1.8,2,4,2s4-2,4-2
S20.2,23,18,23z"></path>
<path fill="#4E342E" d="M32,25c0,1.1-0.9,2-2,2s-2-0.9-2-2s0.9-2,2-2S32,23.9,32,25z M16,25c0,1.1,0.9,2,2,2s2-0.9,2-2s-0.9-2-2-2
S16,23.9,16,25z"></path>
</svg>